<svg id="Layer_1" data-name="Layer 1" xmlns="http://www.w3.org/2000/svg" viewBox="0 0 130.32 157.31"><defs><style>.cls-1{fill:#fff;}</style></defs><path class="cls-1" d="M130.32.85V102.69h-.73l-9.86-11.08q-8.13-9.15-16.29-18.3a.48.48,0,0,1,.49-.48h9.63a.43.43,0,0,1,.32.14l5.85,5.85V26.43L81.85,64.31a2.18,2.18,0,0,1-3.1,0l-4.4-4.38a2.2,2.2,0,0,1,0-3.11l45.38-45.37Z" transform="translate(0 -0.85)"/><path class="cls-1" d="M0,.85V102.69H.73l9.86-11.08,16.29-18.3a.48.48,0,0,0-.49-.48H16.76a.4.4,0,0,0-.31.14l-5.86,5.85V26.43L48.47,64.31a2.2,2.2,0,0,0,3.11,0L56,59.93a2.2,2.2,0,0,0,0-3.11L10.59,11.45Z" transform="translate(0 -0.85)"/><path class="cls-1" d="M86.06,123.84l16-.08L74.33,151.47l-5.81,5.81a3,3,0,0,1-3,.77,2.92,2.92,0,0,1-1.35-.77l-5.8-5.8L27.2,120.25l-5.83-5.83a3,3,0,0,1-.76-1.28,2.74,2.74,0,0,1-.11-.57,2.44,2.44,0,0,1,0-.54,3,3,0,0,1,.88-1.87l5.82-5.81L58.42,73.12l5.8-5.79c.08-.07.15-.15.23-.21a4,4,0,0,1,.5-.34,4.85,4.85,0,0,1,.55-.22A3.1,3.1,0,0,1,67,66.49a5.36,5.36,0,0,1,.57.17,2.88,2.88,0,0,1,1,.67l5.8,5.8L102,100.84l-16-.08L66.38,81.08,35.15,112.3l31.23,31.22Z" transform="translate(0 -0.85)"/></svg>